PathFileType	4	(X/Y/Z)	
DataRate	CameraRate	NumFrames	NumMarkers	Units	OrigDataRate	OrigDataStartFrame	OrigNumFrames
60	60	7	25	m	100	1	188
Frame#	Time	Nose				Neck				RShoulder				RElbow				RWrist				LShoulder				LElbow				LWrist				CHip				RHip				RKnee				RAnkle				LHip				LKnee				LAnkle				REye				LEye				REar				LEar				LBigToe				LSmallToe				LHeel				RBigToe				RSmallToe				RHeel			
X1	Y1	Z1	X2	Y2	Z2	X3	Y3	Z3	X4	Y4	Z4	X5	Y5	Z5	X6	Y6	Z6	X7	Y7	Z7	X8	Y8	Z8	X9	Y9	Z9	X10	Y10	Z10	X11	Y11	Z11	X12	Y12	Z12	X13	Y13	Z13	X14	Y14	Z14	X15	Y15	Z15	X16	Y16	Z16	X17	Y17	Z17	X18	Y18	Z18	X19	Y19	Z19	X20	Y20	Z20	X21	Y21	Z21	X22	Y22	Z22	X23	Y23	Z23	X24	Y24	Z24	X25	Y25	Z25
1	0.0	0.179465	1.5558026	-0.6128047	0.2632612	1.386412	-0.7669072	0.144204	1.3915936	-0.7302835	0.2161956	1.4455315	-0.4368234	0.3742783	1.6572088	-0.4869878	0.4042285	1.4315245	-0.7495885	0.6158878	1.5517087	-0.6272072	0.4353856	1.7025892	-0.5101879	0.2572111	0.8821425	-0.8114004	0.1546812	0.898339	-0.8348698	-0.0137121	0.4932294	-0.8417091	-0.1865321	0.1415488	-1.0168884	0.3620983	0.8821216	-0.7888359	0.4314517	0.490042	-0.6159569	0.550332	0.1105515	-0.7664896	0.1637796	1.5742158	-0.6494106	0.2069039	1.5908636	-0.615824	0.1880192	1.5429349	-0.7474304	0.3049595	1.5848885	-0.6592207	0.5477344	0.0104539	-0.6174756	0.5847579	0.0214835	-0.6408473	0.5501497	0.0902952	-0.808233	-0.2497897	0.0431356	-0.8704776	-0.2729332	0.0604334	-0.909192	-0.1679277	0.1206656	-1.0491829
2	0.016666666666666666	0.1811	1.5568073	-0.6111447	0.264118	1.3871781	-0.7650695	0.1457357	1.3919237	-0.7264723	0.2226919	1.445908	-0.4343275	0.3786153	1.6581478	-0.4885124	0.4054413	1.4325272	-0.7494208	0.617447	1.5515258	-0.6267535	0.4372622	1.7020564	-0.5087103	0.2575753	0.8828223	-0.8090223	0.1546841	0.89917	-0.8306997	-0.0136724	0.4941743	-0.8385998	-0.189748	0.1447361	-1.0153236	0.3628265	0.8826643	-0.7881485	0.4329887	0.4915724	-0.613525	0.5481277	0.11174	-0.7656338	0.1651122	1.5749235	-0.6477646	0.2083293	1.5920014	-0.6145256	0.1889343	1.5432484	-0.7456926	0.3062081	1.5863359	-0.6584619	0.5472571	0.0123179	-0.6161716	0.5839305	0.0232029	-0.6399055	0.547446	0.0913332	-0.8074172	-0.2498545	0.0435772	-0.8694415	-0.2736976	0.0613239	-0.9076235	-0.1717206	0.1245288	-1.0481262
3	0.03333333333333333	0.1881409	1.5590606	-0.6110174	0.2684162	1.3879179	-0.7646229	0.1508592	1.3930084	-0.7236631	0.2345124	1.4474084	-0.4335462	0.3893308	1.6588774	-0.4934128	0.4103332	1.4327817	-0.7511941	0.6233611	1.5500318	-0.628853	0.4442222	1.7009172	-0.5095828	0.2602141	0.8833987	-0.807928	0.1569616	0.8998764	-0.8276677	-0.0108374	0.4947664	-0.8379214	-0.1888048	0.1478224	-1.017905	0.3658272	0.883109	-0.7888612	0.4371505	0.4923838	-0.6140056	0.5486363	0.1127752	-0.7689226	0.1718323	1.5768899	-0.6476353	0.2154626	1.5941201	-0.6150244	0.1944477	1.5442256	-0.7454679	0.3128584	1.5876887	-0.6599528	0.549229	0.0132353	-0.6195455	0.5855906	0.0241066	-0.6435447	0.5474972	0.0924121	-0.8108166	-0.2462596	0.043377	-0.8733016	-0.2706658	0.0616509	-0.9109409	-0.171189	0.1284345	-1.0512154
4	0.05	0.1897871	1.5576425	-0.6062157	0.2698856	1.3864938	-0.7596347	0.1527515	1.3904165	-0.7168667	0.2378024	1.4432235	-0.4266578	0.3899513	1.65684	-0.4854995	0.4117956	1.4322366	-0.7480824	0.624584	1.5499589	-0.626038	0.4446735	1.69918	-0.5058032	0.2630264	0.8819078	-0.8026776	0.1594485	0.8982918	-0.8206276	-0.0082496	0.4934828	-0.8330572	-0.1881117	0.1494406	-1.0169722	0.3689966	0.8817134	-0.785299	0.440851	0.4915828	-0.6091019	0.5482879	0.1108844	-0.7637318	0.1730082	1.5750706	-0.6428202	0.2167528	1.5929297	-0.6106843	0.1950632	1.5419872	-0.7405331	0.3138514	1.5871145	-0.6564008	0.5497038	0.0123702	-0.6137059	0.5858586	0.0229697	-0.6379067	0.546782	0.0902674	-0.8056251	-0.2438703	0.0415986	-0.8743087	-0.2686439	0.060459	-0.9114835	-0.1707121	0.1309288	-1.0506878
5	0.06666666666666667	0.1940714	1.5558021	-0.6052912	0.2724501	1.387066	-0.7620265	0.1560974	1.3894522	-0.7166098	0.2452608	1.4385798	-0.4266605	0.3939939	1.6548095	-0.484436	0.4143949	1.4336689	-0.7531126	0.6278742	1.550838	-0.6318485	0.4481503	1.6966064	-0.5071616	0.2668681	0.8826652	-0.8068453	0.1629282	0.8989199	-0.8226045	-0.0049285	0.4944096	-0.8345798	-0.1871337	0.1526351	-1.0206367	0.3732418	0.8825392	-0.7915768	0.4454172	0.4934116	-0.6128926	0.5483295	0.110736	-0.7653123	0.1763392	1.5734942	-0.6413227	0.2205783	1.591422	-0.6098907	0.196613	1.5418344	-0.7398738	0.3167672	1.5871768	-0.6577564	0.5505352	0.0136708	-0.6143737	0.5864766	0.023898	-0.6388439	0.5464244	0.0897303	-0.8071536	-0.240919	0.041492	-0.8799094	-0.2661192	0.0608795	-0.9165437	-0.1699596	0.1349443	-1.0547942
6	0.08333333333333333	0.2018222	1.5558026	-0.6030738	0.2767809	1.3883183	-0.7624732	0.1616273	1.3894087	-0.7134683	0.2567829	1.4355404	-0.4245866	0.4018117	1.6540869	-0.4827284	0.4188126	1.4356177	-0.7579421	0.6353725	1.5523968	-0.6419109	0.4587064	1.6961014	-0.5106755	0.2713239	0.8838322	-0.8063877	0.1669638	0.8999814	-0.8190998	-0.0016872	0.4958494	-0.8257745	-0.1887071	0.1546866	-1.0082855	0.3781703	0.8837277	-0.7941921	0.4523609	0.4953303	-0.6140908	0.5489844	0.1110688	-0.7663475	0.1828254	1.5734639	-0.6384743	0.2278387	1.5916966	-0.6083259	0.2003333	1.5424066	-0.7376881	0.322593	1.5885794	-0.6591428	0.5536097	0.0147785	-0.6149464	0.5890778	0.0247229	-0.6401426	0.546185	0.0898361	-0.8080966	-0.2394018	0.0418199	-0.8679524	-0.2653464	0.0614411	-0.9038869	-0.1720981	0.1374273	-1.0429406
7	0.1	0.2010703	1.5574794	-0.601481	0.2773165	1.390516	-0.760433	0.1621994	1.3906418	-0.711224	0.2574218	1.4348478	-0.4219589	0.4010503	1.6546022	-0.4787839	0.4193061	1.438374	-0.7559696	0.6359729	1.5544951	-0.6395798	0.4595506	1.6974866	-0.5072626	0.2737357	0.8860086	-0.8050482	0.169399	0.9019449	-0.8178801	0.000907	0.4979339	-0.827109	-0.1840715	0.1581882	-1.014376	0.3805943	0.8860767	-0.7926217	0.4528607	0.4970863	-0.6125369	0.5488756	0.1125259	-0.7641623	0.1820454	1.5749809	-0.6369429	0.2268308	1.5935674	-0.6066785	0.2000398	1.5440235	-0.7360344	0.3217868	1.5911589	-0.6572158	0.5519614	0.0160718	-0.6127941	0.587642	0.0259929	-0.6376435	0.546423	0.0913252	-0.8060019	-0.2361932	0.0425071	-0.8770949	-0.2617202	0.0625818	-0.9130173	-0.1668079	0.1416558	-1.0490756
